<svg aria-hidden="true" style="position: absolute; width: 0; height: 0; overflow: hidden;" version="1.1"
    xmlns="http://www.w3.org/2000/svg" xmlns:xlink="http://www.w3.org/1999/xlink">
    <defs>
        <symbol id="play" viewBox="0 0 32 32">
            <path fill="#21c4a9" style="fill: var(--color1, #21c4a9)"
                d="M14.766 10.011c-1.771-1.046-3.766 0.376-3.766 2.273v7.432c0 1.897 1.995 3.319 3.766 2.273l6.294-3.716c1.698-1.002 1.698-3.544 0-4.546l-6.294-3.716zM13 12.284c0-0.265 0.128-0.45 0.279-0.544 0.146-0.091 0.31-0.101 0.47-0.007l6.294 3.716c0.177 0.104 0.29 0.304 0.29 0.551s-0.113 0.446-0.29 0.551l-6.294 3.716c-0.16 0.095-0.324 0.085-0.47-0.007-0.151-0.094-0.279-0.28-0.279-0.544v-7.432z">
            </path>
            <path fill="#21c4a9" style="fill: var(--color1, #21c4a9)"
                d="M16 1.667c-7.916 0-14.333 6.417-14.333 14.333s6.417 14.333 14.333 14.333c7.916 0 14.333-6.417 14.333-14.333s-6.417-14.333-14.333-14.333zM3.667 16c0-6.811 5.522-12.333 12.333-12.333s12.333 5.522 12.333 12.333c0 6.811-5.522 12.333-12.333 12.333s-12.333-5.522-12.333-12.333z">
            </path>
        </symbol>
        <symbol id="search" viewBox="0 0 24 24" fill="#00000099">
            <g id="SVGRepo_bgCarrier" stroke-width="0"></g>
            <g id="SVGRepo_tracerCarrier" stroke-linecap="round" stroke-linejoin="round"></g>
            <g id="SVGRepo_iconCarrier">
                <path fill-rule="evenodd" clip-rule="evenodd"
                    d="M17.0392 15.6244C18.2714 14.084 19.0082 12.1301 19.0082 10.0041C19.0082 5.03127 14.9769 1 10.0041 1C5.03127 1 1 5.03127 1 10.0041C1 14.9769 5.03127 19.0082 10.0041 19.0082C12.1301 19.0082 14.084 18.2714 15.6244 17.0392L21.2921 22.707C21.6828 23.0977 22.3163 23.0977 22.707 22.707C23.0977 22.3163 23.0977 21.6828 22.707 21.2921L17.0392 15.6244ZM10.0041 17.0173C6.1308 17.0173 2.99087 13.8774 2.99087 10.0041C2.99087 6.1308 6.1308 2.99087 10.0041 2.99087C13.8774 2.99087 17.0173 6.1308 17.0173 10.0041C17.0173 13.8774 13.8774 17.0173 10.0041 17.0173Z"
                    fill="#00000099"></path>
            </g>
        </symbol>
        <symbol id="cancel" viewBox="0 0 32 32" fill="#00000099">
            <path
                d="M7.057 8.943l7.057 7.057-7.057 7.057c-0.521 0.521-0.521 1.365 0 1.885s1.365 0.521 1.885 0l7.057-7.057 7.057 7.057c0.521 0.521 1.365 0.521 1.885 0s0.521-1.365 0-1.885l-7.057-7.057 7.057-7.057c0.521-0.521 0.521-1.365 0-1.885s-1.365-0.521-1.885 0l-7.057 7.057-7.057-7.057c-0.521-0.521-1.365-0.521-1.885 0s-0.521 1.365 0 1.885z">
            </path>
        </symbol>
    </defs>
</svg>